<svg width="32px" height="36px" viewBox="0 0 32 36" version="1.1" xmlns="http://www.w3.org/2000/svg" xmlns:xlink="http://www.w3.org/1999/xlink">
  <desc>Created with Sketch.</desc>
  <defs></defs>
  <g id="Symbols" stroke="none" stroke-width="1" fill="none" fill-rule="evenodd">
    <g id="Logo">
      <g>
        <g id="Group-3" transform="translate(0.000000, 5.000000)" fill="#6C45A3">
          <path d="M29.6383492,0.00834728033 L23.5653968,0.00834728033 L9.20984127,1.10761506 C3.76888889,3.49493724 0,8.67238494 0,14.6747071 C0,21.9756904 5.57606349,28.0560879 12.9547302,29.3796653 L16.4996825,29.9921548 C16.5539683,29.9829916 18.9408889,29.3897071 18.9950476,29.3800418 C26.3746667,28.0572176 31.951746,21.9763808 31.951746,14.6747071 C31.951746,13.649749 31.8419048,12.6487029 31.6325079,11.6816109 L22.2614603,11.6816109 L17.6346032,14.1138075 L17.6346032,17.5656276 L20.952,17.7040167 L25.2215238,17.7040167 C24.3739683,19.9219456 22.5739683,21.7395188 20.2627937,22.7585774 L11.7048254,22.7655439 C8.44501587,21.3347071 6.19828571,18.3171339 6.19828571,14.8258368 C6.19828571,11.5720921 8.14977778,8.72962343 11.0540952,7.19974895 L22.9640635,6.04518828 L24.924127,6.04518828 C30.0748571,5.44110879 30.1621587,1.12631799 30.1621587,0.522301255 C30.1621587,0.0570502092 29.8514921,0.00357740586 29.7086349,0.00357740586 C29.6660317,0.00357740586 29.6383492,0.00834728033 29.6383492,0.00834728033" id="Fill-1"></path>
        </g>
        <g id="Group-8" transform="translate(9.000000, 0.000000)" fill="#FFFFFF">
          <path d="M14.9633627,7.35628531 C14.9633627,11.3947678 11.6145,14.6686909 7.48357725,14.6686909 C3.35265451,14.6686909 0.00385622318,11.3947678 0.00385622318,7.35628531 C0.00385622318,3.3178028 3.35265451,0.0439426573 7.48357725,0.0439426573 C11.6145,0.0439426573 14.9633627,3.3178028 14.9633627,7.35628531" id="Fill-4"></path>
          <path d="M0.225148069,13.3273448 C0.225148069,13.3273448 2.34961159,16.5292049 7.04100644,16.7022818 C11.467294,16.8655406 13.5027876,14.4523448 13.5027876,14.4523448 L9.69652146,34.7019042 L13.2372296,35.9999811 L0.0481094421,35.9999811 L3.76585622,34.7019042 L0.225148069,13.3273448 Z" id="Fill-6"></path>
        </g>
      </g>
    </g>
  </g>
</svg>
