<?xml version="1.0" encoding="utf-8"?>
<!-- Generator: Adobe Illustrator 16.0.0, SVG Export Plug-In . SVG Version: 6.00 Build 0)  -->
<!DOCTYPE svg PUBLIC "-//W3C//DTD SVG 1.1//EN" "http://www.w3.org/Graphics/SVG/1.1/DTD/svg11.dtd">
<svg version="1.1" id="Layer_1" xmlns="http://www.w3.org/2000/svg" xmlns:xlink="http://www.w3.org/1999/xlink" x="0px" y="0px"
	 width="25px" height="25px" viewBox="0 0 25 25" enable-background="new 0 0 25 25" xml:space="preserve">
<g>
	<linearGradient id="SVGID_1_" gradientUnits="userSpaceOnUse" x1="2.9209" y1="2.9214" x2="21.6719" y2="21.6724">
		<stop  offset="0.1043" style="stop-color:#B58308"/>
		<stop  offset="0.1486" style="stop-color:#BB8C10"/>
		<stop  offset="0.1964" style="stop-color:#C49C1D"/>
		<stop  offset="0.4111" style="stop-color:#D3B431"/>
		<stop  offset="0.5472" style="stop-color:#EADF9D"/>
		<stop  offset="0.6906" style="stop-color:#C49C1D"/>
		<stop  offset="0.8399" style="stop-color:#B58308;stop-opacity:0.8"/>
		<stop  offset="0.9793" style="stop-color:#D3B431"/>
	</linearGradient>
	<path fill="url(#SVGID_1_)" d="M16.678,25c0.55,0,1.318-0.318,1.707-0.707l5.908-5.908C24.682,17.995,25,17.227,25,16.678V8.321
		c0-0.549-0.318-1.318-0.707-1.706l-5.908-5.908C17.996,0.318,17.228,0,16.678,0H8.322c-0.55,0-1.318,0.318-1.707,0.707L0.707,6.615
		C0.318,7.003,0,7.772,0,8.321v8.357c0,0.549,0.318,1.316,0.707,1.707l5.908,5.908C7.004,24.682,7.772,25,8.322,25H16.678z"/>
	<path opacity="0.2" fill="#666666" d="M23.088,7.821l-5.901-5.902c-0.098-0.086-0.389-0.207-0.509-0.215H8.331
		C8.202,1.712,7.911,1.833,7.82,1.913l-5.9,5.9C1.833,7.911,1.712,8.202,1.704,8.321v8.347c0.01,0.131,0.129,0.422,0.208,0.512
		l5.901,5.9c0.098,0.086,0.389,0.207,0.509,0.215h8.35c0.131-0.01,0.418-0.129,0.508-0.207l5.9-5.9
		c0.087-0.098,0.206-0.389,0.216-0.51V8.333C23.288,8.202,23.167,7.911,23.088,7.821z"/>
	<g opacity="0.2">
		<path fill="#4D4D4D" d="M23.088,7.82l-5.901-5.901c-0.098-0.087-0.389-0.207-0.509-0.215H8.331
			C8.202,1.712,7.911,1.832,7.82,1.912l-5.9,5.901C1.833,7.911,1.712,8.202,1.704,8.321v0.455c0.008-0.119,0.129-0.41,0.216-0.508
			l5.9-5.901c0.091-0.08,0.382-0.2,0.511-0.208h8.347c0.12,0.008,0.411,0.128,0.509,0.214l5.901,5.902
			c0.079,0.091,0.2,0.382,0.208,0.511V8.332C23.288,8.202,23.167,7.911,23.088,7.82z"/>
	</g>
	<g opacity="0.2">
		<path fill="#4D4D4D" d="M23.088,17.18l-5.901,5.9c-0.098,0.088-0.389,0.207-0.509,0.215H8.331
			c-0.129-0.008-0.42-0.127-0.511-0.207l-5.9-5.902c-0.087-0.098-0.208-0.389-0.216-0.508v-0.455
			c0.008,0.119,0.129,0.41,0.216,0.508l5.9,5.902c0.091,0.08,0.382,0.199,0.511,0.207h8.347c0.12-0.008,0.411-0.127,0.509-0.213
			l5.901-5.902c0.079-0.092,0.2-0.383,0.208-0.512v0.455C23.288,16.797,23.167,17.088,23.088,17.18z"/>
	</g>
	<path opacity="0.2" fill="#808080" d="M10.124,19.2c-0.22,0-0.527-0.127-0.683-0.283l-3.359-3.357
		C5.927,15.401,5.8,15.094,5.8,14.875l0.001-4.751c0-0.22,0.126-0.527,0.281-0.683l3.359-3.359c0.156-0.155,0.464-0.281,0.684-0.281
		h4.751c0.22,0,0.527,0.126,0.683,0.281l3.359,3.36c0.155,0.155,0.282,0.462,0.282,0.683l-0.001,4.75
		c0,0.221-0.126,0.527-0.281,0.684l-3.359,3.357c-0.155,0.156-0.463,0.283-0.683,0.283H10.124z"/>
	<g opacity="0.9">
		<linearGradient id="SVGID_2_" gradientUnits="userSpaceOnUse" x1="8.6802" y1="8.4053" x2="16.7633" y2="17.0714">
			<stop  offset="0" style="stop-color:#825487"/>
			<stop  offset="0.1254" style="stop-color:#77457D"/>
			<stop  offset="0.3044" style="stop-color:#632969"/>
			<stop  offset="0.5598" style="stop-color:#825487"/>
			<stop  offset="0.6902" style="stop-color:#77457D"/>
			<stop  offset="0.8764" style="stop-color:#632969"/>
			<stop  offset="1" style="stop-color:#7F2888"/>
		</linearGradient>
		<path fill="url(#SVGID_2_)" d="M16.701,10.163L14.838,8.3c-0.236-0.237-0.684-0.422-1.019-0.422h-2.64
			c-0.335,0-0.782,0.185-1.019,0.422L8.3,10.161c-0.236,0.236-0.422,0.684-0.422,1.019l-0.001,2.64c0,0.333,0.186,0.783,0.422,1.019
			l1.864,1.863c0.236,0.236,0.684,0.422,1.019,0.422h2.637c0.335,0,0.782-0.186,1.019-0.422l1.863-1.863
			c0.236-0.236,0.422-0.684,0.422-1.018l0.001-2.64C17.123,10.847,16.938,10.399,16.701,10.163z M16.655,13.82
			c0,0.215-0.134,0.536-0.285,0.688l-1.863,1.863c-0.152,0.15-0.474,0.285-0.688,0.285h-2.637c-0.215,0-0.536-0.135-0.688-0.285
			l-1.864-1.863c-0.151-0.152-0.285-0.475-0.285-0.689l0.001-2.64c0-0.215,0.134-0.536,0.285-0.688l1.861-1.861
			c0.152-0.152,0.474-0.285,0.688-0.285h2.64c0.215,0,0.536,0.133,0.688,0.285l1.863,1.863c0.151,0.151,0.285,0.473,0.285,0.688
			L16.655,13.82z"/>
		<linearGradient id="SVGID_3_" gradientUnits="userSpaceOnUse" x1="8.6802" y1="8.4048" x2="16.7631" y2="17.0706">
			<stop  offset="0" style="stop-color:#825487"/>
			<stop  offset="0.1254" style="stop-color:#77457D"/>
			<stop  offset="0.3044" style="stop-color:#632969"/>
			<stop  offset="0.5598" style="stop-color:#825487"/>
			<stop  offset="0.6902" style="stop-color:#77457D"/>
			<stop  offset="0.8764" style="stop-color:#632969"/>
			<stop  offset="1" style="stop-color:#7F2888"/>
		</linearGradient>
		<path fill="url(#SVGID_3_)" d="M14.388,9.154c-0.194-0.194-0.578-0.354-0.854-0.354h-2.069c-0.275,0-0.659,0.159-0.854,0.354
			l-1.457,1.458c-0.194,0.193-0.354,0.578-0.354,0.854L8.8,13.534c0,0.274,0.159,0.658,0.354,0.853l1.46,1.459
			c0.194,0.193,0.578,0.354,0.854,0.354h2.066c0.275,0,0.659-0.16,0.854-0.354l1.459-1.459c0.194-0.193,0.354-0.578,0.354-0.853
			l0.001-2.067c0-0.274-0.159-0.659-0.354-0.854L14.388,9.154z"/>
	</g>
	<g>
		<g opacity="0.2">
			<path fill="#4D4D4D" d="M19.587,13.094v-2.62c0-0.313-0.181-0.749-0.402-0.97l-3.347-3.349c-0.221-0.221-0.657-0.401-0.97-0.401
				h-4.736c-0.312,0-0.749,0.181-0.97,0.401L8.968,6.35C8.784,6.299,8.581,6.338,8.437,6.482S8.253,6.831,8.303,7.015L5.815,9.504
				c-0.222,0.221-0.402,0.656-0.402,0.97v4.734c0,0.312,0.181,0.75,0.402,0.971l0.645,0.645c-0.05,0.182-0.012,0.387,0.133,0.531
				s0.348,0.184,0.531,0.133l2.039,2.039c0.221,0.221,0.657,0.4,0.97,0.4h4.734c0.312,0,0.749-0.18,0.97-0.4l3.348-3.348
				c0.222-0.221,0.402-0.658,0.402-0.971v-1.295c0.028-0.018,0.06-0.03,0.084-0.055c0.195-0.195,0.195-0.513,0-0.708
				C19.646,13.125,19.615,13.111,19.587,13.094z M18.647,15.956l-3.032,3.033c-0.221,0.221-0.657,0.4-0.97,0.4h-4.291
				c-0.312,0-0.749-0.18-0.97-0.4l-1.881-1.881c0.05-0.186,0.011-0.389-0.133-0.531c-0.145-0.145-0.349-0.184-0.532-0.135
				l-0.486-0.486c-0.222-0.221-0.402-0.656-0.402-0.971v-4.29c0-0.312,0.181-0.749,0.402-0.97l2.331-2.332
				c0.184,0.049,0.386,0.011,0.53-0.134c0.146-0.144,0.185-0.347,0.134-0.53l0.036-0.037c0.221-0.221,0.657-0.401,0.97-0.401h4.293
				c0.312,0,0.749,0.181,0.97,0.401l3.031,3.033c0.222,0.221,0.402,0.657,0.402,0.97v2.397c-0.029,0.019-0.061,0.03-0.086,0.057
				c-0.195,0.195-0.195,0.513,0,0.708c0.025,0.025,0.057,0.037,0.086,0.056v1.072C19.05,15.299,18.869,15.735,18.647,15.956z"/>
		</g>
		<g>
			<linearGradient id="SVGID_4_" gradientUnits="userSpaceOnUse" x1="5.4131" y1="12.4995" x2="19.8174" y2="12.4995">
				<stop  offset="0" style="stop-color:#FFF6C1"/>
				<stop  offset="0.2629" style="stop-color:#C49C1D"/>
				<stop  offset="0.3338" style="stop-color:#BE9315"/>
				<stop  offset="0.4103" style="stop-color:#B58308"/>
				<stop  offset="0.5489" style="stop-color:#C49C1D"/>
				<stop  offset="0.6997" style="stop-color:#D3B431"/>
				<stop  offset="0.8613" style="stop-color:#EADF9D"/>
				<stop  offset="1" style="stop-color:#C49C1D"/>
			</linearGradient>
			<path fill="url(#SVGID_4_)" d="M19.587,12.752v-2.619c0-0.313-0.181-0.749-0.402-0.97l-3.347-3.349
				c-0.221-0.221-0.657-0.401-0.97-0.401h-4.736c-0.312,0-0.749,0.181-0.97,0.401L8.968,6.009C8.784,5.958,8.581,5.997,8.437,6.143
				C8.292,6.286,8.253,6.49,8.303,6.674L5.815,9.163c-0.222,0.221-0.402,0.656-0.402,0.97v4.735c0,0.312,0.181,0.748,0.402,0.969
				l0.645,0.645c-0.05,0.184-0.012,0.389,0.133,0.531c0.145,0.145,0.348,0.184,0.531,0.135l2.039,2.037
				c0.221,0.221,0.657,0.402,0.97,0.402h4.734c0.312,0,0.749-0.182,0.97-0.402l3.348-3.348c0.222-0.221,0.402-0.656,0.402-0.969
				v-1.294c0.028-0.02,0.06-0.032,0.084-0.057c0.195-0.195,0.195-0.513,0-0.708C19.646,12.784,19.615,12.771,19.587,12.752z
				 M18.647,15.616l-3.032,3.031c-0.221,0.221-0.657,0.402-0.97,0.402h-4.291c-0.312,0-0.749-0.182-0.97-0.402l-1.881-1.881
				c0.05-0.184,0.011-0.387-0.133-0.531c-0.145-0.145-0.349-0.184-0.532-0.133l-0.486-0.486c-0.222-0.223-0.402-0.658-0.402-0.971
				v-4.291c0-0.312,0.181-0.749,0.402-0.97l2.331-2.332c0.184,0.049,0.386,0.011,0.53-0.134c0.146-0.144,0.185-0.347,0.134-0.53
				l0.036-0.037c0.221-0.221,0.657-0.401,0.97-0.401h4.293c0.312,0,0.749,0.181,0.97,0.401l3.031,3.033
				c0.222,0.221,0.402,0.657,0.402,0.97v2.397c-0.029,0.019-0.061,0.031-0.086,0.057c-0.195,0.195-0.195,0.513,0,0.708
				c0.025,0.025,0.057,0.037,0.086,0.057v1.072C19.05,14.958,18.869,15.393,18.647,15.616z"/>
		</g>
	</g>
	<linearGradient id="SVGID_5_" gradientUnits="userSpaceOnUse" x1="2.0815" y1="1.0532" x2="21.4978" y2="22.3864">
		<stop  offset="0" style="stop-color:#C49C1D"/>
		<stop  offset="0.1964" style="stop-color:#C49C1D"/>
		<stop  offset="0.4111" style="stop-color:#D3B431"/>
		<stop  offset="0.5472" style="stop-color:#EADF9D"/>
		<stop  offset="0.6906" style="stop-color:#C49C1D"/>
		<stop  offset="0.8652" style="stop-color:#D3B431"/>
	</linearGradient>
	<path fill="url(#SVGID_5_)" d="M24.293,6.615l-5.908-5.908C17.996,0.318,17.228,0,16.678,0H8.322c-0.55,0-1.318,0.318-1.707,0.707
		L0.707,6.615C0.318,7.003,0,7.772,0,8.321v8.357c0,0.549,0.318,1.316,0.707,1.707l5.908,5.908C7.004,24.682,7.772,25,8.322,25
		h8.355c0.55,0,1.318-0.318,1.707-0.707l5.908-5.908C24.682,17.995,25,17.227,25,16.678V8.321C25,7.772,24.682,7.003,24.293,6.615z
		 M23.296,16.678c-0.01,0.121-0.129,0.412-0.216,0.51l-5.9,5.9c-0.09,0.078-0.377,0.197-0.508,0.207h-8.35
		c-0.12-0.008-0.411-0.129-0.509-0.215l-5.901-5.9c-0.079-0.09-0.198-0.381-0.208-0.512V8.321c0.008-0.119,0.129-0.41,0.216-0.508
		l5.9-5.901c0.091-0.08,0.382-0.2,0.511-0.208h8.347c0.12,0.008,0.411,0.128,0.509,0.215l5.901,5.901
		c0.079,0.091,0.2,0.382,0.208,0.512V16.678z"/>
	<g>
		<g opacity="0.1">
			<path fill="#4D4D4D" d="M17.179,23.088l5.901-5.902c0.087-0.098,0.207-0.389,0.215-0.508V8.331
				c-0.008-0.129-0.128-0.42-0.208-0.511l-5.901-5.9c-0.098-0.087-0.389-0.208-0.508-0.216h-0.455
				c0.119,0.008,0.41,0.129,0.508,0.216l5.901,5.9c0.08,0.091,0.2,0.382,0.208,0.511v8.347c-0.008,0.119-0.128,0.41-0.214,0.508
				l-5.902,5.902c-0.091,0.078-0.382,0.199-0.511,0.207h0.454C16.797,23.288,17.088,23.167,17.179,23.088z"/>
		</g>
		<g opacity="0.1">
			<path fill="#4D4D4D" d="M7.819,23.088l-5.901-5.902c-0.087-0.098-0.207-0.389-0.215-0.508V8.331
				c0.008-0.129,0.128-0.42,0.208-0.511l5.901-5.9C7.91,1.833,8.201,1.712,8.32,1.704h0.455C8.656,1.712,8.365,1.833,8.268,1.92
				l-5.901,5.9c-0.08,0.091-0.2,0.382-0.208,0.511v8.347c0.008,0.119,0.128,0.41,0.214,0.508l5.902,5.902
				c0.091,0.078,0.382,0.199,0.511,0.207H8.331C8.201,23.288,7.91,23.167,7.819,23.088z"/>
		</g>
	</g>
</g>
</svg>
