<?xml version="1.0" encoding="utf-8"?>
<!-- Generator: Adobe Illustrator 16.0.0, SVG Export Plug-In . SVG Version: 6.00 Build 0)  -->
<!DOCTYPE svg PUBLIC "-//W3C//DTD SVG 1.1//EN" "http://www.w3.org/Graphics/SVG/1.1/DTD/svg11.dtd">
<svg version="1.1" id="Layer_1" xmlns="http://www.w3.org/2000/svg" xmlns:xlink="http://www.w3.org/1999/xlink" x="0px" y="0px"
	 width="432px" height="499.998px" viewBox="0 0 432 499.998" enable-background="new 0 0 432 499.998" xml:space="preserve">
<g>
	<linearGradient id="SVGID_1_" gradientUnits="userSpaceOnUse" x1="433.5439" y1="467.543" x2="17.8903" y2="51.8893">
		<stop  offset="0" style="stop-color:#EEEBE9"/>
		<stop  offset="0" style="stop-color:#E7E3E0"/>
		<stop  offset="0.0649" style="stop-color:#D8D4D3"/>
		<stop  offset="0.189" style="stop-color:#B2ADB0"/>
		<stop  offset="0.264" style="stop-color:#989398"/>
		<stop  offset="0.5225" style="stop-color:#F8F8F8"/>
		<stop  offset="0.5878" style="stop-color:#EAE9EA"/>
		<stop  offset="0.7133" style="stop-color:#C5C2C4"/>
		<stop  offset="0.8764" style="stop-color:#8C878A"/>
		<stop  offset="1" style="stop-color:#DADADA"/>
		<stop  offset="1" style="stop-color:#B2B2B2"/>
	</linearGradient>
	<polygon fill="url(#SVGID_1_)" points="0,125 216,0 432,125 432,374.998 216,499.998 0,374.998 	"/>
	<linearGradient id="SVGID_2_" gradientUnits="userSpaceOnUse" x1="216" y1="74.0332" x2="432" y2="74.0332">
		<stop  offset="0" style="stop-color:#CCCCCC"/>
		<stop  offset="1" style="stop-color:#FFFFFF"/>
	</linearGradient>
	<polygon fill="url(#SVGID_2_)" points="216,0 216,46.215 392,148.066 432,125 	"/>
	<linearGradient id="SVGID_3_" gradientUnits="userSpaceOnUse" x1="412" y1="136.4707" x2="412" y2="382.4532">
		<stop  offset="0" style="stop-color:#CCCCCC"/>
		<stop  offset="1" style="stop-color:#999999"/>
	</linearGradient>
	<polygon fill="url(#SVGID_3_)" points="392,351.932 432,374.998 432,125 392,148.066 	"/>
	<path opacity="0.2" fill="#666666" d="M136.652,339.998v-76.434c0-14.287,5.826-38.338,44.843-38.906l63.423-0.002v-13.98H136.652
		v-50.678h112.182c40.471,0,46.514,24.533,46.514,39.156v37.277c0,14.438-5.878,38.654-45.244,38.654h-63.281v14.229h108.271v50.684
		H136.652z"/>
	<polygon fill="#E6E6E6" points="216,0 216,46.215 40,148.066 0,125 	"/>
	<linearGradient id="SVGID_4_" gradientUnits="userSpaceOnUse" x1="0" y1="425.9648" x2="216" y2="425.9648">
		<stop  offset="0" style="stop-color:#B3B3B3"/>
		<stop  offset="1" style="stop-color:#808080"/>
	</linearGradient>
	<polygon fill="url(#SVGID_4_)" points="216,499.998 216,453.783 40,351.932 0,374.998 	"/>
	<linearGradient id="SVGID_5_" gradientUnits="userSpaceOnUse" x1="216" y1="425.9648" x2="432" y2="425.9648">
		<stop  offset="0" style="stop-color:#4D4D4D"/>
		<stop  offset="0.5351" style="stop-color:#808080"/>
		<stop  offset="1" style="stop-color:#999999"/>
	</linearGradient>
	<polygon fill="url(#SVGID_5_)" points="216,499.998 216,453.783 392,351.932 432,374.998 	"/>
	<polygon fill="#CCCCCC" points="40,351.932 0,374.998 0,125 40,148.066 	"/>
	<linearGradient id="SVGID_6_" gradientUnits="userSpaceOnUse" x1="85.126" y1="127.23" x2="321.3382" y2="363.4422">
		<stop  offset="0" style="stop-color:#825487"/>
		<stop  offset="0.1254" style="stop-color:#77457D"/>
		<stop  offset="0.3044" style="stop-color:#632969"/>
		<stop  offset="0.5598" style="stop-color:#825487"/>
		<stop  offset="0.6902" style="stop-color:#77457D"/>
		<stop  offset="0.8764" style="stop-color:#632969"/>
		<stop  offset="1" style="stop-color:#7F2888"/>
	</linearGradient>
	<path fill="url(#SVGID_6_)" d="M245.793,234.656c6.084,0,9.125-1.012,9.125-3.043v-27.131c0-2.533-3.041-3.807-9.125-3.807h-99.141
		v-30.678h102.182c24.346,0,36.514,9.721,36.514,29.156v37.277c0,19.104-11.75,28.654-35.244,28.654h-64.15
		c-6.086,0-9.131,1.098-9.131,3.297v30.932h108.271v30.684H146.652v-66.434c0-18.932,11.658-28.568,34.988-28.908H245.793z"/>
	<g opacity="0.2">
		<g>
			<polygon fill="#666666" points="216,53.213 46,151.594 46,163.525 216,60.146 386,163.525 386,151.594 			"/>
		</g>
		<g>
			<polygon fill="#666666" points="216,446.852 46,348.471 46,336.539 216,439.918 386,336.539 386,348.471 			"/>
		</g>
	</g>
	<linearGradient id="SVGID_7_" gradientUnits="userSpaceOnUse" x1="354.9668" y1="388.9658" x2="77.0338" y2="111.0328">
		<stop  offset="0" style="stop-color:#EEEBE9"/>
		<stop  offset="0" style="stop-color:#E7E3E0"/>
		<stop  offset="0.0649" style="stop-color:#D8D4D3"/>
		<stop  offset="0.189" style="stop-color:#B2ADB0"/>
		<stop  offset="0.264" style="stop-color:#989398"/>
		<stop  offset="0.5225" style="stop-color:#F8F8F8"/>
		<stop  offset="0.5878" style="stop-color:#EAE9EA"/>
		<stop  offset="0.7133" style="stop-color:#C5C2C4"/>
		<stop  offset="0.8764" style="stop-color:#8C878A"/>
		<stop  offset="1" style="stop-color:#DADADA"/>
		<stop  offset="1" style="stop-color:#B2B2B2"/>
	</linearGradient>
	<path fill="url(#SVGID_7_)" d="M216,54.303l169,97.801v195.791l-169,97.801L47,347.895V152.104L216,54.303 M216,46.215L40,148.066
		v203.865l176,101.852l176-101.852V148.066L216,46.215L216,46.215z"/>
	<g opacity="0.5">
		<path fill="#CCCCCC" d="M244.918,224.656l-63.423,0.002c-39.017,0.568-44.843,24.619-44.843,38.906v6
			c0-14.287,5.826-38.338,44.843-38.906l63.423-0.002V224.656z"/>
		<path fill="#CCCCCC" d="M248.834,159.998H136.652v6h112.182c40.471,0,46.514,24.533,46.514,39.156v-6
			C295.348,184.531,289.305,159.998,248.834,159.998z"/>
		<rect x="186.822" y="289.314" fill="#CCCCCC" width="108.271" height="6"/>
	</g>
</g>
</svg>
