<?xml version="1.0" encoding="utf-8"?>
<!-- Generator: Adobe Illustrator 16.0.0, SVG Export Plug-In . SVG Version: 6.00 Build 0)  -->
<!DOCTYPE svg PUBLIC "-//W3C//DTD SVG 1.1//EN" "http://www.w3.org/Graphics/SVG/1.1/DTD/svg11.dtd">
<svg version="1.1" id="Layer_1" xmlns="http://www.w3.org/2000/svg" xmlns:xlink="http://www.w3.org/1999/xlink" x="0px" y="0px"
	 width="432px" height="500px" viewBox="0 0 432 500" enable-background="new 0 0 432 500" xml:space="preserve">
<g>
	<g>
		<linearGradient id="SVGID_1_" gradientUnits="userSpaceOnUse" x1="433.5439" y1="467.5439" x2="17.8895" y2="51.8895">
			<stop  offset="0.0056" style="stop-color:#461E18"/>
			<stop  offset="0.0843" style="stop-color:#6F4A27"/>
			<stop  offset="0.382" style="stop-color:#AF9253"/>
			<stop  offset="0.5618" style="stop-color:#EADABC"/>
			<stop  offset="0.7926" style="stop-color:#A48560"/>
			<stop  offset="0.8034" style="stop-color:#A1815C"/>
			<stop  offset="0.9551" style="stop-color:#8A542E"/>
		</linearGradient>
		<polygon fill="url(#SVGID_1_)" points="0,125 216,0 432,125 432,375 216,500 0,375 		"/>
		<g>
			<linearGradient id="SVGID_2_" gradientUnits="userSpaceOnUse" x1="354.9668" y1="388.9668" x2="77.0345" y2="111.0345">
				<stop  offset="0.0056" style="stop-color:#461E18"/>
				<stop  offset="0.0843" style="stop-color:#6F4A27"/>
				<stop  offset="0.382" style="stop-color:#AF9253"/>
				<stop  offset="0.5618" style="stop-color:#EADABC"/>
				<stop  offset="0.7926" style="stop-color:#A48560"/>
				<stop  offset="0.8034" style="stop-color:#A1815C"/>
				<stop  offset="0.9551" style="stop-color:#8A542E"/>
			</linearGradient>
			<path fill="url(#SVGID_2_)" d="M216,53.148l170,98.379v196.945l-170,98.381L46,348.473V151.527L216,53.148 M216,46.215
				L40,148.068v203.865l176,101.852l176-101.852V148.068L216,46.215L216,46.215z"/>
			<polygon fill="#C7B299" points="216,0 216,46.215 392,148.068 432,125 			"/>
			<polygon fill="#A1815C" points="216,0 216,46.215 40,148.068 0,125 			"/>
			<polygon fill="#53381D" points="216,500 216,453.785 40,351.934 0,375 			"/>
			<polygon fill="#6F4A27" points="216,500 216,453.785 392,351.934 432,375 			"/>
			<polygon fill="#6F4A27" points="40,351.934 0,375 0,125 40,148.068 			"/>
			<polygon fill="#A1815C" points="392,351.934 432,375 432,125 392,148.068 			"/>
		</g>
	</g>
	<path opacity="0.2" fill="#666666" d="M136.648,340v-50.685h108.273v-14.229H136.648v-50.43h108.273v-13.979H136.648V160h112.189
		c40.471,0,46.514,24.372,46.514,38.9v102.19c0,14.531-6.043,38.909-46.514,38.909H136.648z"/>
	<linearGradient id="SVGID_3_" gradientUnits="userSpaceOnUse" x1="68.6299" y1="110.6968" x2="322.2008" y2="364.2677">
		<stop  offset="0" style="stop-color:#825487"/>
		<stop  offset="0.1254" style="stop-color:#77457D"/>
		<stop  offset="0.3044" style="stop-color:#632969"/>
		<stop  offset="0.5598" style="stop-color:#825487"/>
		<stop  offset="0.6902" style="stop-color:#77457D"/>
		<stop  offset="0.8764" style="stop-color:#632969"/>
		<stop  offset="1" style="stop-color:#7F2888"/>
	</linearGradient>
	<path fill="url(#SVGID_3_)" d="M146.648,330v-30.685h99.143c5.746,0,8.791-1.012,9.131-3.042v-31.187H146.648v-30.43h108.273
		V203.72c-0.34-2.023-3.385-3.042-9.131-3.042h-99.143V170h102.189c24.338,0,36.514,9.636,36.514,28.9v102.19
		c0,19.272-12.176,28.909-36.514,28.909H146.648z"/>
	<path opacity="0.2" fill="#666666" d="M386,151.596v11.932L216,60.148L46,163.527v-11.932l170-98.381L386,151.596z M46,336.541
		v11.932l170,98.381l170-98.381v-11.932L216,439.92L46,336.541z"/>
	<g opacity="0.2">
		<rect x="136.648" y="224.657" fill="#CCCCCC" width="108.273" height="6"/>
		<rect x="136.648" y="289.315" fill="#CCCCCC" width="108.273" height="6"/>
		<path fill="#CCCCCC" d="M248.838,160H136.648v6h112.189c40.471,0,46.514,24.372,46.514,38.9v-6
			C295.352,184.372,289.309,160,248.838,160z"/>
	</g>
</g>
</svg>
