<?xml version="1.0" encoding="utf-8"?>
<!-- Generator: Adobe Illustrator 16.0.0, SVG Export Plug-In . SVG Version: 6.00 Build 0)  -->
<!DOCTYPE svg PUBLIC "-//W3C//DTD SVG 1.1//EN" "http://www.w3.org/Graphics/SVG/1.1/DTD/svg11.dtd">
<svg version="1.1" id="Layer_1" xmlns="http://www.w3.org/2000/svg" xmlns:xlink="http://www.w3.org/1999/xlink" x="0px" y="0px"
	 width="432px" height="499.998px" viewBox="0 0 432 499.998" enable-background="new 0 0 432 499.998" xml:space="preserve">
<g>
	<g>
		<linearGradient id="SVGID_1_" gradientUnits="userSpaceOnUse" x1="433.5449" y1="467.5439" x2="17.8904" y2="51.8895">
			<stop  offset="0.0056" style="stop-color:#EFC981"/>
			<stop  offset="0.1854" style="stop-color:#F2D78F"/>
			<stop  offset="0.4101" style="stop-color:#F8F0E4"/>
			<stop  offset="0.7303" style="stop-color:#C59611"/>
			<stop  offset="0.9015" style="stop-color:#E5BB6D"/>
			<stop  offset="0.9494" style="stop-color:#EEC687"/>
		</linearGradient>
		<polygon fill="url(#SVGID_1_)" points="0,125 216,0 432,125 432,374.998 216,499.998 0,374.998 		"/>
		<linearGradient id="SVGID_2_" gradientUnits="userSpaceOnUse" x1="216" y1="74.0332" x2="432" y2="74.0332">
			<stop  offset="0" style="stop-color:#D6D6D6"/>
			<stop  offset="1" style="stop-color:#F2F2F2"/>
		</linearGradient>
		<polygon fill="url(#SVGID_2_)" points="216,0 216,46.215 392,148.066 432,125 		"/>
		<polygon fill="#E6E6E6" points="216,0 216,46.215 40,148.066 0,125 		"/>
		<linearGradient id="SVGID_3_" gradientUnits="userSpaceOnUse" x1="0" y1="425.9648" x2="216" y2="425.9648">
			<stop  offset="0" style="stop-color:#B3B3B3"/>
			<stop  offset="1" style="stop-color:#CCCCCC"/>
		</linearGradient>
		<polygon fill="url(#SVGID_3_)" points="216,499.998 216,453.783 40,351.932 0,374.998 		"/>
		<linearGradient id="SVGID_4_" gradientUnits="userSpaceOnUse" x1="216" y1="425.9648" x2="432" y2="425.9648">
			<stop  offset="0" style="stop-color:#808080"/>
			<stop  offset="1" style="stop-color:#999999"/>
		</linearGradient>
		<polygon fill="url(#SVGID_4_)" points="216,499.998 216,453.783 392,351.932 432,374.998 		"/>
		<polygon fill="#CCCCCC" points="40,351.932 0,374.998 0,125 40,148.066 		"/>
		<linearGradient id="SVGID_5_" gradientUnits="userSpaceOnUse" x1="412" y1="136.4707" x2="412" y2="382.4532">
			<stop  offset="0" style="stop-color:#999999"/>
			<stop  offset="1" style="stop-color:#CCCCCC"/>
		</linearGradient>
		<polygon fill="url(#SVGID_5_)" points="392,351.932 432,374.998 432,125 392,148.066 		"/>
		<linearGradient id="SVGID_6_" gradientUnits="userSpaceOnUse" x1="476.7119" y1="476.2676" x2="-15.2868" y2="49.2681">
			<stop  offset="0" style="stop-color:#F2D78F"/>
			<stop  offset="0.1105" style="stop-color:#EFB081"/>
			<stop  offset="0.208" style="stop-color:#F1C18D"/>
			<stop  offset="0.4009" style="stop-color:#F8EEAC"/>
			<stop  offset="0.4101" style="stop-color:#F8F0AE"/>
			<stop  offset="0.7303" style="stop-color:#C55C00"/>
			<stop  offset="0.8805" style="stop-color:#E1985B"/>
			<stop  offset="0.9494" style="stop-color:#EEB487"/>
		</linearGradient>
		<path fill="url(#SVGID_6_)" d="M216,0L0,125v249.998l216,125l216-125V125L216,0z M216,453.783L40,351.932V148.066L216,46.215
			l176,101.852v203.865L216,453.783z"/>
		<g opacity="0.3">
			<g>
				<linearGradient id="SVGID_7_" gradientUnits="userSpaceOnUse" x1="46" y1="108.3691" x2="386" y2="108.3691">
					<stop  offset="0" style="stop-color:#EEEBE9"/>
					<stop  offset="0" style="stop-color:#E7E3E0"/>
					<stop  offset="0.0649" style="stop-color:#D8D4D3"/>
					<stop  offset="0.189" style="stop-color:#B2ADB0"/>
					<stop  offset="0.264" style="stop-color:#989398"/>
					<stop  offset="0.5225" style="stop-color:#F8F8F8"/>
					<stop  offset="0.5878" style="stop-color:#EAE9EA"/>
					<stop  offset="0.7133" style="stop-color:#C5C2C4"/>
					<stop  offset="0.8764" style="stop-color:#8C878A"/>
					<stop  offset="1" style="stop-color:#DADADA"/>
					<stop  offset="1" style="stop-color:#B2B2B2"/>
				</linearGradient>
				<polygon fill="url(#SVGID_7_)" points="216,53.213 46,151.594 46,163.525 216,60.146 386,163.525 386,151.594 				"/>
			</g>
			<g>
				<linearGradient id="SVGID_8_" gradientUnits="userSpaceOnUse" x1="46" y1="391.6953" x2="386" y2="391.6953">
					<stop  offset="0" style="stop-color:#EEEBE9"/>
					<stop  offset="0" style="stop-color:#E7E3E0"/>
					<stop  offset="0.0649" style="stop-color:#D8D4D3"/>
					<stop  offset="0.189" style="stop-color:#B2ADB0"/>
					<stop  offset="0.264" style="stop-color:#989398"/>
					<stop  offset="0.5225" style="stop-color:#F8F8F8"/>
					<stop  offset="0.5878" style="stop-color:#EAE9EA"/>
					<stop  offset="0.7133" style="stop-color:#C5C2C4"/>
					<stop  offset="0.8764" style="stop-color:#8C878A"/>
					<stop  offset="1" style="stop-color:#DADADA"/>
					<stop  offset="1" style="stop-color:#B2B2B2"/>
				</linearGradient>
				<polygon fill="url(#SVGID_8_)" points="216,446.852 46,348.471 46,336.539 216,439.918 386,336.539 386,348.471 				"/>
			</g>
		</g>
		<linearGradient id="SVGID_9_" gradientUnits="userSpaceOnUse" x1="402.5664" y1="391.9854" x2="-108.9034" y2="2.732">
			<stop  offset="0.0056" style="stop-color:#EFC981"/>
			<stop  offset="0.1854" style="stop-color:#F2D78F"/>
			<stop  offset="0.4101" style="stop-color:#F8F0E4"/>
			<stop  offset="0.7303" style="stop-color:#C58511"/>
			<stop  offset="0.9015" style="stop-color:#E5B76D"/>
			<stop  offset="0.9494" style="stop-color:#EEC687"/>
		</linearGradient>
		<path fill="url(#SVGID_9_)" d="M216,54.303l169,97.801v195.791l-169,97.801L47,347.895V152.104L216,54.303 M216,46.215L40,148.066
			v203.865l176,101.852l176-101.852V148.066L216,46.215L216,46.215z"/>
	</g>
	<polygon opacity="0.2" fill="#666666" points="159.98,339.998 159.98,289.318 190.66,289.318 190.66,212.707 174.518,212.707 
		174.518,159.998 241.34,159.998 241.34,289.318 272.02,289.318 272.02,339.998 	"/>
	<linearGradient id="SVGID_10_" gradientUnits="userSpaceOnUse" x1="99.9995" y1="149.3374" x2="289.3197" y2="338.6576">
		<stop  offset="0" style="stop-color:#825487"/>
		<stop  offset="0.1254" style="stop-color:#77457D"/>
		<stop  offset="0.3044" style="stop-color:#632969"/>
		<stop  offset="0.5598" style="stop-color:#825487"/>
		<stop  offset="0.6902" style="stop-color:#77457D"/>
		<stop  offset="0.8764" style="stop-color:#632969"/>
		<stop  offset="1" style="stop-color:#7F2888"/>
	</linearGradient>
	<polygon fill="url(#SVGID_10_)" points="231.34,299.318 231.34,169.998 184.518,169.998 184.518,202.707 200.66,202.707 
		200.66,299.318 169.98,299.318 169.98,329.998 200.66,329.998 231.34,329.998 262.02,329.998 262.02,299.318 	"/>
	<g opacity="0.5">
		<rect x="174.518" y="159.998" fill="#CCCCCC" width="66.822" height="6"/>
		<rect x="159.98" y="289.318" fill="#CCCCCC" width="30.68" height="6"/>
		<rect x="241.34" y="289.318" fill="#CCCCCC" width="30.68" height="6"/>
	</g>
</g>
</svg>
